<?xml version="1.0" standalone="no"?>
<!DOCTYPE svg PUBLIC "-//W3C//DTD SVG 20010904//EN"
 "http://www.w3.org/TR/2001/REC-SVG-20010904/DTD/svg10.dtd">
<svg version="1.0" xmlns="http://www.w3.org/2000/svg"
 width="200.000000pt" height="200.000000pt" viewBox="0 0 200.000000 200.000000"
 preserveAspectRatio="xMidYMid meet">
<metadata>
Created by potrace 1.14, written by Peter Selinger 2001-2017
</metadata>
<g transform="translate(0.000000,200.000000) scale(0.100000,-0.100000)"
fill="#000000" stroke="none">
<path d="M0 1000 l0 -1000 1000 0 1000 0 0 1000 0 1000 -1000 0 -1000 0 0
-1000z m478 160 c8 0 10 -8 6 -25 l-6 -25 76 0 76 0 0 -185 0 -185 -170 0
-170 0 0 185 0 185 56 0 c53 0 56 2 67 31 9 23 16 29 32 25 11 -3 26 -6 33 -6z
m492 -15 c0 -10 11 -15 35 -15 24 0 35 5 35 15 0 10 11 15 35 15 24 0 35 -5
35 -15 0 -11 12 -15 50 -15 47 0 50 -2 50 -25 0 -23 -3 -25 -50 -25 -27 0 -50
-3 -50 -8 0 -4 15 -7 33 -7 26 0 33 -4 35 -23 2 -13 -3 -25 -13 -28 -12 -5
-13 -10 -4 -20 9 -11 5 -21 -16 -46 l-28 -33 41 -3 c37 -3 42 -6 42 -28 0 -23
-3 -24 -62 -25 l-63 -1 60 -29 c33 -16 66 -29 73 -29 15 0 15 -15 2 -40 -10
-19 -12 -19 -53 -3 -23 9 -59 27 -79 40 l-38 23 0 -45 c0 -43 -1 -45 -30 -45
-29 0 -30 2 -30 44 l0 44 -77 -40 -77 -40 -18 22 c-10 12 -18 25 -18 29 0 4
24 15 53 24 29 9 62 23 72 32 18 13 15 14 -42 15 -60 0 -63 1 -63 25 0 22 4
25 35 25 40 0 43 11 15 48 -16 20 -18 27 -8 34 10 6 8 8 -4 8 -12 0 -18 8 -18
25 0 23 3 25 51 25 45 0 49 2 35 15 -9 9 -33 15 -60 15 -42 0 -46 2 -46 25 0
23 3 25 50 25 38 0 50 4 50 15 0 10 10 15 30 15 20 0 30 -5 30 -15z m510 -19
c0 -30 3 -35 28 -38 23 -3 27 -8 27 -33 0 -25 -4 -30 -27 -33 -17 -2 -28 -9
-28 -18 0 -8 4 -13 8 -10 5 3 21 -6 37 -18 29 -23 29 -24 11 -51 -17 -26 -18
-26 -37 -9 -18 17 -19 16 -19 -26 l0 -43 26 24 c28 26 84 116 84 137 0 6 -9
12 -20 12 -16 0 -20 7 -20 35 0 31 3 35 25 35 22 0 25 4 25 35 0 33 2 35 35
35 33 0 35 -2 35 -34 0 -34 1 -35 43 -38 39 -3 42 -5 42 -33 0 -28 -3 -30 -38
-33 -34 -3 -37 -6 -31 -25 8 -27 56 -98 78 -116 9 -8 16 -21 16 -30 -1 -17
-23 -51 -33 -51 -4 0 -22 24 -42 52 l-35 53 0 -83 0 -82 -35 0 -35 0 0 77 0
77 -32 -47 c-18 -26 -37 -47 -41 -47 -5 0 -17 10 -28 23 l-18 22 -1 -52 c0
-52 -1 -53 -30 -53 l-30 0 0 83 0 82 -26 -42 c-14 -24 -27 -43 -28 -43 -2 0
-11 11 -20 25 -17 25 -16 28 14 77 49 79 53 96 27 100 -17 2 -23 11 -25 36 -3
30 -1 32 27 32 29 0 31 3 31 35 0 32 2 35 30 35 28 0 30 -3 30 -34z"/>
<path d="M350 1005 l0 -45 110 0 110 0 0 45 0 45 -110 0 -110 0 0 -45z"/>
<path d="M350 850 l0 -50 110 0 110 0 0 50 0 50 -110 0 -110 0 0 -50z"/>
<path d="M970 1070 c0 -5 24 -10 53 -9 38 0 47 3 32 9 -28 12 -85 12 -85 0z"/>
<path d="M910 998 c0 -6 8 -20 17 -31 17 -18 17 -19 0 -32 -25 -18 -21 -25 13
-25 35 0 53 25 38 53 -5 10 -7 25 -4 33 4 10 -3 14 -29 14 -20 0 -35 -5 -35
-12z"/>
<path d="M1035 984 c12 -19 14 -29 6 -34 -20 -11 -1 -40 27 -40 24 0 24 1 9
18 -16 17 -15 20 8 42 35 33 32 40 -21 40 l-46 0 17 -26z"/>
</g>
</svg>
